<svg xmlns="http://www.w3.org/2000/svg" width="1100" height="454" viewBox="0 0 1100 454">
<style>text{font-family:Arial,sans-serif;font-size:13px}.title{font-size:18px;font-weight:700}.axis{fill:#444}.bar{fill:#476fb3}</style>
<text class="title" x="20" y="28">Repeated public CRISPR throughput</text>
<text class="axis" x="20" y="50">Mean reads/s across repeated MAGeCK/Yusa real FASTQ subsamples</text>
<text x="20" y="90">dotmatch_exact_k0 (10000/sample)</text>
<rect class="bar" x="430" y="75" width="103" height="19" rx="2"/>
<text x="541" y="89">413018.2</text>
<text x="20" y="122">dotmatch_exact_k0 (100000/sample)</text>
<rect class="bar" x="430" y="107" width="580" height="19" rx="2"/>
<text x="1018" y="121">2309133.0</text>
<text x="20" y="154">dotmatch_hamming_k1 (10000/sample)</text>
<rect class="bar" x="430" y="139" width="79" height="19" rx="2"/>
<text x="517" y="153">314571.2</text>
<text x="20" y="186">dotmatch_hamming_k1 (100000/sample)</text>
<rect class="bar" x="430" y="171" width="185" height="19" rx="2"/>
<text x="623" y="185">737770.8</text>
<text x="20" y="218">dotmatch_levenshtein_k1 (10000/sample)</text>
<rect class="bar" x="430" y="203" width="12" height="19" rx="2"/>
<text x="450" y="217">47867.7</text>
<text x="20" y="250">dotmatch_levenshtein_k1 (100000/sample)</text>
<rect class="bar" x="430" y="235" width="75" height="19" rx="2"/>
<text x="513" y="249">301767.4</text>
<text x="20" y="282">guide_counter_exact (10000/sample)</text>
<rect class="bar" x="430" y="267" width="91" height="19" rx="2"/>
<text x="529" y="281">365902.5</text>
<text x="20" y="314">guide_counter_exact (100000/sample)</text>
<rect class="bar" x="430" y="299" width="381" height="19" rx="2"/>
<text x="819" y="313">1519653.6</text>
<text x="20" y="346">guide_counter_one_mismatch (10000/sample)</text>
<rect class="bar" x="430" y="331" width="14" height="19" rx="2"/>
<text x="452" y="345">57722.5</text>
<text x="20" y="378">guide_counter_one_mismatch (100000/sample)</text>
<rect class="bar" x="430" y="363" width="103" height="19" rx="2"/>
<text x="541" y="377">413398.6</text>
<text x="20" y="410">mageck_count_exact (10000/sample)</text>
<rect class="bar" x="430" y="395" width="14" height="19" rx="2"/>
<text x="452" y="409">56128.8</text>
<text x="20" y="442">mageck_count_exact (100000/sample)</text>
<rect class="bar" x="430" y="427" width="79" height="19" rx="2"/>
<text x="517" y="441">318392.5</text>
</svg>