<svg xmlns="http://www.w3.org/2000/svg" width="1050" height="312" viewBox="0 0 1050 312">
<style>text{font-family:Arial,sans-serif;font-size:13px}.title{font-size:18px;font-weight:700}.axis{fill:#444}.bar{fill:#a45f3f}</style>
<text class="title" x="20" y="28">Public CRISPR end-to-end runtime</text>
<text class="axis" x="20" y="50">Small real MAGeCK/Yusa FASTQ subset; lower is better</text>
<text x="20" y="93">dotmatch_exact_k0</text>
<rect class="bar" x="310" y="78" width="23" height="20" rx="2"/>
<text x="341" y="93">0.36 s</text>
<text x="20" y="127">dotmatch_levenshtein_k1</text>
<rect class="bar" x="310" y="112" width="28" height="20" rx="2"/>
<text x="346" y="127">0.44 s</text>
<text x="20" y="161">dotmatch_hamming_k1</text>
<rect class="bar" x="310" y="146" width="8" height="20" rx="2"/>
<text x="326" y="161">0.13 s</text>
<text x="20" y="195">mageck_count_exact</text>
<rect class="bar" x="310" y="180" width="67" height="20" rx="2"/>
<text x="385" y="195">1.05 s</text>
<text x="20" y="229">guide_counter_one_mismatch</text>
<rect class="bar" x="310" y="214" width="60" height="20" rx="2"/>
<text x="378" y="229">0.95 s</text>
<text x="20" y="263">external_competitors_ERR376998.fastq.gz</text>
<rect class="bar" x="310" y="248" width="645" height="20" rx="2"/>
<text x="963" y="263">10.07 s</text>
<text x="20" y="297">external_competitors_ERR376999.fastq.gz</text>
<rect class="bar" x="310" y="282" width="614" height="20" rx="2"/>
<text x="932" y="297">9.59 s</text>
</svg>