<svg xmlns="http://www.w3.org/2000/svg" width="1120" height="456" viewBox="0 0 1120 456">
<style>text{font-family:Arial,sans-serif;font-size:13px}.title{font-size:18px;font-weight:700}.axis{fill:#444}.bar{fill:#5d7b3f}</style>
<text class="title" x="20" y="28">Repeated verified candidates per read</text>
<text class="axis" x="20" y="50">DotMatch mechanism: exact verification work per input read</text>
<text x="20" y="91">dotmatch_exact_k0 (10000/sample)</text>
<rect class="bar" x="430" y="76" width="538" height="19" rx="2"/>
<text x="976" y="90">0.90 verified/read</text>
<text x="20" y="123">dotmatch_exact_k0 (100000/sample)</text>
<rect class="bar" x="430" y="108" width="538" height="19" rx="2"/>
<text x="976" y="122">0.89 verified/read</text>
<text x="20" y="155">dotmatch_hamming_k1 (10000/sample)</text>
<rect class="bar" x="430" y="140" width="600" height="19" rx="2"/>
<text x="1038" y="154">1.00 verified/read</text>
<text x="20" y="187">dotmatch_hamming_k1 (100000/sample)</text>
<rect class="bar" x="430" y="172" width="599" height="19" rx="2"/>
<text x="1037" y="186">1.00 verified/read</text>
<text x="20" y="219">dotmatch_levenshtein_k1 (10000/sample)</text>
<rect class="bar" x="430" y="204" width="592" height="19" rx="2"/>
<text x="1030" y="218">0.98 verified/read</text>
<text x="20" y="251">dotmatch_levenshtein_k1 (100000/sample)</text>
<rect class="bar" x="430" y="236" width="590" height="19" rx="2"/>
<text x="1028" y="250">0.98 verified/read</text>
<text x="20" y="283">guide_counter_exact (10000/sample)</text>
<rect class="bar" x="430" y="268" width="0" height="19" rx="2"/>
<text x="438" y="282">0.00 verified/read</text>
<text x="20" y="315">guide_counter_exact (100000/sample)</text>
<rect class="bar" x="430" y="300" width="0" height="19" rx="2"/>
<text x="438" y="314">0.00 verified/read</text>
<text x="20" y="347">guide_counter_one_mismatch (10000/sample)</text>
<rect class="bar" x="430" y="332" width="0" height="19" rx="2"/>
<text x="438" y="346">0.00 verified/read</text>
<text x="20" y="379">guide_counter_one_mismatch (100000/sample)</text>
<rect class="bar" x="430" y="364" width="0" height="19" rx="2"/>
<text x="438" y="378">0.00 verified/read</text>
<text x="20" y="411">mageck_count_exact (10000/sample)</text>
<rect class="bar" x="430" y="396" width="0" height="19" rx="2"/>
<text x="438" y="410">0.00 verified/read</text>
<text x="20" y="443">mageck_count_exact (100000/sample)</text>
<rect class="bar" x="430" y="428" width="0" height="19" rx="2"/>
<text x="438" y="442">0.00 verified/read</text>
</svg>