<svg xmlns="http://www.w3.org/2000/svg" width="900" height="308" viewBox="0 0 900 308">
<style>text{font-family:Arial,sans-serif;font-size:13px}.title{font-size:18px;font-weight:700}.axis{fill:#444}.bar{fill:#2f7d68}</style>
<text class="title" x="20" y="28">Public CRISPR workflow throughput</text>
<text class="axis" x="20" y="50">Small real MAGeCK/Yusa FASTQ subset; higher is better</text>
<text x="20" y="90">dotmatch_exact_k0</text>
<rect class="bar" x="260" y="75" width="204" height="20" rx="2"/>
<text x="472" y="90">55657.8 reads/s</text>
<text x="20" y="124">dotmatch_levenshtein_k1</text>
<rect class="bar" x="260" y="109" width="166" height="20" rx="2"/>
<text x="434" y="124">45170.8 reads/s</text>
<text x="20" y="158">dotmatch_hamming_k1</text>
<rect class="bar" x="260" y="143" width="560" height="20" rx="2"/>
<text x="828" y="158">152147.7 reads/s</text>
<text x="20" y="192">mageck_count_exact</text>
<rect class="bar" x="260" y="177" width="70" height="20" rx="2"/>
<text x="338" y="192">19029.3 reads/s</text>
<text x="20" y="226">guide_counter_one_mismatch</text>
<rect class="bar" x="260" y="211" width="77" height="20" rx="2"/>
<text x="345" y="226">21020.9 reads/s</text>
<text x="20" y="260">external_competitors_ERR376998.fastq.gz</text>
<rect class="bar" x="260" y="245" width="3" height="20" rx="2"/>
<text x="271" y="260">993.0 reads/s</text>
<text x="20" y="294">external_competitors_ERR376999.fastq.gz</text>
<rect class="bar" x="260" y="279" width="3" height="20" rx="2"/>
<text x="271" y="294">1043.1 reads/s</text>
</svg>